# xmcd
#
# Track frame offsets:
#	150
#	14739
#	30680
#	45331
#	62261
#	75202
#	95751
#	110573
#	125407
#	138844
#	151950
#	169150
#	189103
#
# Disc length: 2809 seconds
#
# Revision: 1
# Processed by: cddbd v1.5.2PL0 Copyright (c) Steve Scherf et al.
# Submitted via: audiograbber 1.83.01
#
DISCID=980af70d
DTITLE=Peggy Clinton - Peggy Clinton
DYEAR=2014
DGENRE=Country
TTITLE0=I Can Count On You
TTITLE1=Till The Next Time She Goes
TTITLE2=You Will Never Have
TTITLE3=Keepeing It All Inside
TTITLE4=The Note
TTITLE5=Comin' On Like A Storm
TTITLE6=Borderline
TTITLE7=Dancin' With Her Memory
TTITLE8=I'll Prove it to you
TTITLE9=Memories In My Head
TTITLE10=The Old Oak Tree
TTITLE11=There Goes My Girl
TTITLE12=Father Of Mine
EXTD=
EXTT0=
EXTT1=
EXTT2=
EXTT3=
EXTT4=
EXTT5=
EXTT6=
EXTT7=
EXTT8=
EXTT9=
EXTT10=
EXTT11=
EXTT12=
PLAYORDER=
